<svg xmlns="http://www.w3.org/2000/svg" xmlns:xlink="http://www.w3.org/1999/xlink" xmlns:inkscape="http://www.inkscape.org/namespaces/inkscape" version="1.1" width="278.3" height="278.3" viewBox="148.67 149.00 278.33 278.28">
<defs>
<linearGradient id="gradE" x1="0" y1="0" x2="0" y2="1">
<stop offset="0" stop-color="#8f8f8f"/><stop offset="0.45" stop-color="#2b2b2b"/><stop offset="1" stop-color="#000000"/>
</linearGradient>
<clipPath id="clip_1">
<path transform="matrix(1,0,0,-1,0,576)" d="M0 576H576V0H0Z"/>
</clipPath>
<clipPath id="clip_2">
<path transform="matrix(1,0,0,-1,0,576)" d="M232.891 424.797C187.578 424.147 151.625 385.491 151.227 339.453 150.799 294.091 186.229 254.785 231.365 253.483 265.145 252.501 304.256 252.699 341.237 252.896 357.037 252.981 372.45 253.066 386.892 253.058 387.592 253.058 388.294 253.333 390.095 253.708V278.253C390.095 286.334 390.17 294.443 390.095 302.548 389.994 315.583 383.738 321.788 370.604 321.788L242.824 321.764C228.088 321.739 219.605 328.219 219.807 339.253 220.006 349.912 228.588 356.318 242.724 356.318H311.889C313.165 356.191 314.551 356.295 315.875 356.295 334.791 356.295 350.02 371.528 350.02 390.571 350.02 409.611 334.729 425.273 315.813 425.273L315.234 425.258 314.74 425.272C312.065 425.274 309.379 425.276 306.69 425.276 282.215 425.276 257.216 425.158 232.891 424.797"/>
</clipPath>
<clipPath id="clip_3">
<path transform="matrix(1,0,0,-1,0,576)" d="M0 576H576V0H0Z"/>
</clipPath>
</defs>
<g inkscape:groupmode="layer" inkscape:label="Layer 1">
<g clip-path="url(#clip_1)">
<path transform="matrix(1,0,0,-1,151.7002,283.0591)" d="M0 0C0-27.023-1.026-53.094 .25-79.016 1.876-112.04 28.124-138.263 60.65-141.491 66.229-142.069 71.859-142.166 77.438-142.166 139.588-142.216 201.714-142.216 263.864-142.216H272.973C272.973-123.399 273.299-105.512 272.798-87.67 272.597-79.742 265.767-73.912 257.735-73.311 253.105-72.958 248.478-73.106 243.848-73.106H88.122C44.587-73.134 11.935-47.19 1.652-4.328 1.376-3.179 .801-2.077 0 0" fill="#9e0000" fill-rule="evenodd"/>
</g>
<path transform="matrix(1,0,0,-1,0,576)" d="M232.891 424.797C187.578 424.147 151.625 385.491 151.227 339.453 150.799 294.091 186.229 254.785 231.365 253.483 265.145 252.501 304.256 252.699 341.237 252.896 357.037 252.981 372.45 253.066 386.892 253.058 387.592 253.058 388.294 253.333 390.095 253.708V278.253C390.095 286.334 390.17 294.443 390.095 302.548 389.994 315.583 383.738 321.788 370.604 321.788L242.824 321.764C228.088 321.739 219.605 328.219 219.807 339.253 220.006 349.912 228.588 356.318 242.724 356.318H311.889C313.165 356.191 314.551 356.295 315.875 356.295 334.791 356.295 350.02 371.528 350.02 390.571 350.02 409.611 334.729 425.273 315.813 425.273L315.234 425.258 314.74 425.272C312.065 425.274 309.379 425.276 306.69 425.276 282.215 425.276 257.216 425.158 232.891 424.797" fill="url(#gradE)"/>
<g clip-path="url(#clip_3)">
<path transform="matrix(1,0,0,-1,356.501,185.3071)" d="M0 0C0-18.936 15.286-34.292 34.146-34.292 52.991-34.292 68.276-18.936 68.276 0 68.276 18.954 52.991 34.31 34.146 34.31 15.286 34.31 0 18.954 0 0" fill="#9e0000" fill-rule="evenodd"/>
</g>
</g>
</svg>
