<svg xmlns="http://www.w3.org/2000/svg" xmlns:xlink="http://www.w3.org/1999/xlink" xmlns:inkscape="http://www.inkscape.org/namespaces/inkscape" version="1.1" width="717.7" height="137.4" viewBox="62.02 229.14 717.66 137.39">
<defs>
<linearGradient id="gradE" x1="0" y1="0" x2="0" y2="1"><stop offset="0" stop-color="#f0ede8"/><stop offset="1" stop-color="#f0ede8"/></linearGradient>
<linearGradient id="gradA" x1="0" y1="0" x2="0" y2="1"><stop offset="0" stop-color="#f0ede8"/><stop offset="1" stop-color="#f0ede8"/></linearGradient>
<clipPath id="clip_1">
<path transform="matrix(1,0,0,-1,0,595.28)" d="M0 595.28H841.89V0H0Z"/>
</clipPath>
<clipPath id="clip_2">
<path transform="matrix(1,0,0,-1,0,595.28)" d="M92.336 364.37C76.731 364.147 64.349 350.834 64.212 334.979 64.065 319.357 76.266 305.82 91.811 305.372 103.451 305.033 116.927 305.102 129.668 305.17 135.104 305.199 140.404 305.228 145.372 305.226 145.614 305.226 145.856 305.32 146.476 305.449V313.902C146.476 316.686 146.501 319.478 146.476 322.269 146.441 326.758 144.286 328.895 139.763 328.895L95.756 328.887C90.682 328.878 87.761 331.11 87.83 334.91 87.898 338.581 90.854 340.787 95.723 340.787H122.986C123.426 340.744 123.874 340.709 124.331 340.709 130.845 340.709 136.118 346.026 136.118 352.583 136.118 359.141 130.845 364.457 124.331 364.457L123.969 364.449V364.534C123.062 364.535 122.119 364.536 121.149 364.536 112.159 364.536 100.728 364.495 92.336 364.37"/>
</clipPath>
<clipPath id="clip_3">
<path transform="matrix(1,0,0,-1,0,595.28)" d="M523.206 359.063 480.106 284.58C478.288 281.434 478.288 277.565 480.106 274.421 481.924 271.284 485.284 269.347 488.921 269.347H536.554C542.172 269.347 546.73 273.895 546.73 279.505 546.73 285.114 542.172 289.654 536.554 289.654H506.56L532.03 333.67 564.241 278.005C567.334 272.663 573.089 269.347 579.268 269.347 583.903 269.347 588.263 271.147 591.539 274.411 594.82 277.687 596.621 282.038 596.621 286.656L596.614 329.792C596.614 335.401 592.055 339.952 586.436 339.943 580.81 339.943 576.252 335.401 576.252 329.792L576.26 297.867 540.846 359.063C539.027 362.209 535.667 364.138 532.03 364.138 528.394 364.138 525.034 362.209 523.206 359.063"/>
</clipPath>
<clipPath id="clip_4">
<path transform="matrix(1,0,0,-1,0,595.28)" d="M0 595.28H841.89V0H0Z"/>
</clipPath>
</defs>
<g inkscape:groupmode="layer" inkscape:label="Layer 1">
<path transform="matrix(1,0,0,-1,210.2383,256.70774)" d="M0 0-12.649-20.835-25.807 0H-45.41L-23.196-35.233-45.41-68.736H-27.798L-15.131-48.013-1.981-68.736H17.622L-4.584-33.623 17.75 0Z" fill="#ff5a4e" fill-rule="evenodd"/>
<g clip-path="url(#clip_1)">
<path transform="matrix(1,0,0,-1,268.6685,311.30345)" d="M0 0C-4.886 0-9.117 1.792-12.719 5.402-16.312 8.996-18.104 13.942-18.104 20.224-18.104 26.505-16.312 31.451-12.719 35.053-9.117 38.655-4.886 40.456 0 40.456 4.885 40.456 9.125 38.672 12.718 35.113 16.32 31.555 18.121 26.635 18.121 20.353 18.121 14.071 16.32 9.107 12.718 5.463 9.125 1.818 4.885 0 0 0M-18.104 54.596H-35.605V-53.231H-18.104V-2.603C-12.986-10.961-5.765-15.131 3.541-15.131 12.847-15.131 20.551-11.822 26.677-5.204 32.804 1.413 35.871 9.909 35.871 20.292 35.871 30.667 32.804 39.146 26.677 45.729 20.551 52.304 12.778 55.595 3.352 55.595-6.075 55.595-13.227 51.701-18.104 43.928Z" fill="#ff5a4e" fill-rule="evenodd"/>
<path transform="matrix(1,0,0,-1,365.9595,320.23023)" d="M0 0C5.696 4.128 9.548 9.47 11.53 16.01H-7.324C-10.219 11.047-14.691 8.564-20.731 8.564-25.195 8.564-28.883 9.918-31.77 12.649-34.665 15.389-36.328 18.982-36.733 23.454H13.391C13.727 25.514 13.891 27.746 13.891 30.149 13.891 40.568 10.659 48.908 4.214 55.147-2.24 61.395-10.495 64.522-20.542 64.522-30.598 64.522-38.792 61.316-45.108 54.906-51.441 48.495-54.595 39.947-54.595 29.279-54.595 18.604-51.459 10.029-45.177 3.532-38.896-2.964-30.744-6.204-20.731-6.204-12.623-6.204-5.712-4.137 0 0M-4.222 34.743H-36.733C-36.156 39.292-34.398 42.929-31.459 45.66-28.53 48.383-24.868 49.753-20.482 49.753-16.104 49.753-12.356 48.383-9.254 45.66-6.152 42.929-4.472 39.292-4.222 34.743" fill="#ff5a4e" fill-rule="evenodd"/>
<path transform="matrix(1,0,0,-1,388.7856,256.70774)" d="M0 0V-68.736H17.5V-34.243C17.5-27.875 18.811-23.386 21.464-20.784 28.952-13.416 37.742-14.347 37.742-14.347V.026C28.978 .026 22.128-3.386 17.5-12.15V0Z" fill="#ff5a4e" fill-rule="evenodd"/>
<path transform="matrix(1,0,0,-1,458.8916,309.38163)" d="M0 0C-1.077 .947-1.611 2.55-1.611 4.782V38.404H13.778V52.674H-1.611V69.684H-19.104V52.674H-26.428V38.404H-19.104V4.782C-19.104-2.663-17.207-8.005-13.408-11.228-9.607-14.45-4.188-16.062 2.852-16.062H13.898V-1.423H5.583C2.93-1.423 1.068-.948 0 0" fill="#ff5a4e" fill-rule="evenodd"/>
<path fill="#f0ede8" transform="matrix(1,0,0,-1,602.2051,256.70774)" d="M0 0V-68.736H17.501V-30.762C17.501-25.394 18.87-21.275 21.646-18.422 24.42-15.579 28.159-14.14 32.881-14.14 37.595-14.14 41.317-15.579 44.049-18.422 46.772-21.275 48.143-25.394 48.143-30.762V-68.736H65.514V-30.762C65.514-25.394 66.9-21.275 69.666-18.422 72.44-15.579 76.181-14.14 80.895-14.14 85.607-14.14 89.33-15.579 92.062-18.422 94.793-21.275 96.163-25.394 96.163-30.762V-68.736H113.534V-28.28C113.534-19.026 111.026-11.831 106.021-6.695 101.022-1.568 94.413 1 86.236 1 81.023 1 76.326-.241 72.147-2.723 67.978-5.205 64.686-8.591 62.291-12.899 60.051-8.444 56.888-5.006 52.795-2.603 48.702-.198 44.049 1 38.835 1 28.986 1 21.878-2.766 17.501-10.289V0Z" fill-rule="evenodd"/>
<path fill="#f0ede8" transform="matrix(1,0,0,-1,725.2871,287.66773)" d="M0 0C2.731-2.774 6.022-4.687 9.866-5.765 13.709-6.842 17.577-7.755 21.473-8.487 25.358-9.237 28.668-10.297 31.399-11.658 34.123-13.028 35.492-14.89 35.492-17.242 35.492-19.603 34.493-21.499 32.511-22.946 30.528-24.402 27.918-25.118 24.704-25.118 17.991-25.118 14.321-22.223 13.658-16.433H-4.214C-3.723-23.636-.871-29.159 4.343-32.993 9.556-36.846 16.233-38.767 24.394-38.767 32.536-38.767 39.232-36.828 44.488-32.941 49.735-29.056 52.364-23.998 52.364-17.794 52.364-13.089 51.003-9.306 48.262-6.445 45.53-3.594 42.248-1.611 38.404-.491 34.562 .621 30.692 1.551 26.807 2.301 22.921 3.042 19.611 4.084 16.88 5.403 14.148 6.721 12.787 8.539 12.787 10.857 12.787 13.175 13.691 15.002 15.51 16.329 17.337 17.647 19.896 18.311 23.204 18.311 29.822 18.311 33.372 15.415 33.88 9.625H51.743C51.416 16.492 48.719 21.93 43.679 25.945 38.629 29.952 31.933 31.959 23.575 31.959 15.217 31.959 8.521 29.926 3.48 25.876-1.568 21.818-4.093 16.82-4.093 10.866-4.093 6.385-2.731 2.774 0 0" fill-rule="evenodd"/>
<path transform="matrix(1,0,0,-1,64.375,276.31913)" d="M0 0C0-9.307-.354-18.285 .086-27.212 .646-38.586 9.686-47.617 20.887-48.728 22.809-48.927 24.748-48.961 26.669-48.961 48.073-48.979 69.468-48.979 90.872-48.979H94.009C94.009-42.498 94.121-36.337 93.949-30.193 93.879-27.462 91.527-25.454 88.761-25.247 87.167-25.127 85.573-25.178 83.979-25.178H30.348C15.355-25.187 4.11-16.252 .569-1.491 .474-1.095 .276-.715 0 0" fill="#ff5a4e" fill-rule="evenodd"/>
</g>
<path transform="matrix(1,0,0,-1,0,595.28)" d="M92.336 364.37C76.731 364.147 64.349 350.834 64.212 334.979 64.065 319.357 76.266 305.82 91.811 305.372 103.451 305.033 116.927 305.102 129.668 305.17 135.104 305.199 140.404 305.228 145.372 305.226 145.614 305.226 145.856 305.32 146.476 305.449V313.902C146.476 316.686 146.501 319.478 146.476 322.269 146.441 326.758 144.286 328.895 139.763 328.895L95.756 328.887C90.682 328.878 87.761 331.11 87.83 334.91 87.898 338.581 90.854 340.787 95.723 340.787H122.986C123.426 340.744 123.874 340.709 124.331 340.709 130.845 340.709 136.118 346.026 136.118 352.583 136.118 359.141 130.845 364.457 124.331 364.457L123.969 364.449V364.534C123.062 364.535 122.119 364.536 121.149 364.536 112.159 364.536 100.728 364.495 92.336 364.37" fill="url(#gradE)"/>
<path transform="matrix(1,0,0,-1,0,595.28)" d="M523.206 359.063 480.106 284.58C478.288 281.434 478.288 277.565 480.106 274.421 481.924 271.284 485.284 269.347 488.921 269.347H536.554C542.172 269.347 546.73 273.895 546.73 279.505 546.73 285.114 542.172 289.654 536.554 289.654H506.56L532.03 333.67 564.241 278.005C567.334 272.663 573.089 269.347 579.268 269.347 583.903 269.347 588.263 271.147 591.539 274.411 594.82 277.687 596.621 282.038 596.621 286.656L596.614 329.792C596.614 335.401 592.055 339.952 586.436 339.943 580.81 339.943 576.252 335.401 576.252 329.792L576.26 297.867 540.846 359.063C539.027 362.209 535.667 364.138 532.03 364.138 528.394 364.138 525.034 362.209 523.206 359.063" fill="url(#gradA)"/>
<g clip-path="url(#clip_4)">
<path fill="#f0ede8" transform="matrix(1,0,0,-1,596.6133,241.30103)" d="M0 0C0-5.609-4.559-10.15-10.177-10.15-15.804-10.15-20.361-5.609-20.361 0-20.361 5.609-15.804 10.159-10.177 10.159-4.559 10.159 0 5.609 0 0"/>
<path transform="matrix(1,0,0,-1,275.4609,364.52903)" d="M0 0C1.784 0 3.369 .396 4.765 1.207 6.161 2.008 7.195 3.171 7.858 4.679H5.127C4.627 3.766 3.929 3.051 3.042 2.568 2.146 2.085 1.128 1.845 0 1.845-1.887 1.845-3.43 2.431-4.636 3.637-5.859 4.833-6.463 6.42-6.463 8.385-6.463 10.34-5.859 11.926-4.636 13.115-3.43 14.312-1.887 14.907 0 14.907 2.387 14.907 4.093 13.977 5.127 12.115H7.858C7.195 13.605 6.161 14.761 4.765 15.563 3.369 16.355 1.784 16.75 0 16.75-2.473 16.75-4.55 15.958-6.238 14.391-7.927 12.813-8.763 10.806-8.763 8.385-8.763 5.963-7.927 3.955-6.238 2.378-4.55 .784-2.473 0 0 0" fill="#f0ede8" fill-rule="evenodd"/>
<path transform="matrix(1,0,0,-1,293.9868,362.68434)" d="M0 0C-1.87 0-3.421 .586-4.644 1.792-5.868 2.988-6.48 4.575-6.48 6.54-6.48 8.495-5.876 10.081-4.653 11.271-3.43 12.467-1.896 13.063-.008 13.063 1.87 13.063 3.412 12.467 4.619 11.271 5.825 10.081 6.437 8.495 6.437 6.54 6.437 4.575 5.825 2.988 4.619 1.792 3.412 .586 1.87 0 0 0M6.221 .524C7.901 2.102 8.746 4.109 8.746 6.54 8.746 8.979 7.901 10.977 6.221 12.554 4.533 14.121 2.464 14.905 0 14.905-2.464 14.905-4.541 14.121-6.221 12.554-7.91 10.977-8.754 8.979-8.754 6.548-8.754 4.126-7.91 2.118-6.221 .533-4.541-1.061-2.464-1.845 0-1.845 2.464-1.845 4.533-1.061 6.221 .524" fill="#f0ede8" fill-rule="evenodd"/>
<path transform="matrix(1,0,0,-1,316.0029,361.0905)" d="M0 0-9.082 13.312H-11.34V-3.438H-9.082V9.814L0-3.438H2.257V13.312H0Z" fill="#f0ede8" fill-rule="evenodd"/>
<path transform="matrix(1,0,0,-1,324.0937,350.32)" d="M0 0C.603 .465 1.396 .698 2.361 .698 3.334 .698 4.093 .465 4.67 .025 5.239-.431 5.558-.975 5.627-1.62H8.143C7.988-.318 7.419 .698 6.437 1.439 5.446 2.171 4.127 2.541 2.464 2.541 .801 2.541-.543 2.12-1.577 1.284-2.611 .439-3.128-.672-3.128-2.06-3.128-2.913-2.964-3.619-2.611-4.196-2.266-4.773-1.818-5.204-1.275-5.498-.732-5.782-.121-6.031 .551-6.213 1.215-6.401 1.887-6.558 2.567-6.694 3.231-6.833 3.843-6.988 4.386-7.178 4.929-7.376 5.377-7.66 5.722-8.039 6.075-8.427 6.247-8.97 6.247-9.693 6.247-10.409 5.919-11.038 5.282-11.572 4.636-12.107 3.766-12.364 2.68-12.364 1.585-12.364 .758-12.141 .207-11.685-.353-11.236-.664-10.633-.724-9.893H-3.128C-3.128-11.228-2.585-12.271-1.491-13.046-.405-13.821 1.025-14.209 2.766-14.209 4.515-14.209 5.894-13.744 6.919-12.795 7.945-11.856 8.462-10.737 8.462-9.461 8.462-8.625 8.281-7.928 7.936-7.358 7.583-6.79 7.143-6.368 6.601-6.084 6.058-5.808 5.446-5.575 4.773-5.385 4.093-5.214 3.429-5.05 2.757-4.903 2.094-4.765 1.482-4.601 .939-4.412 .396-4.214-.052-3.921-.405-3.523-.75-3.137-.922-2.646-.922-2.042-.922-1.154-.62-.465 0 0" fill="#f0ede8" fill-rule="evenodd"/>
<path transform="matrix(1,0,0,-1,336.7173,362.99586)" d="M0 0C1.215-1.033 2.783-1.533 4.679-1.533 6.583-1.533 8.143-1.033 9.375 0 10.599 1.018 11.219 2.499 11.219 4.446V15.217H8.961V4.421C8.961 3.043 8.574 2.008 7.824 1.328 7.066 .646 6.015 .312 4.696 .312 3.369 .312 2.335 .646 1.577 1.328 .818 2.008 .457 3.043 .457 4.421V15.217H-1.835V4.446C-1.835 2.499-1.224 1.018 0 0" fill="#f0ede8" fill-rule="evenodd"/>
<path transform="matrix(1,0,0,-1,350.9692,364.52903)" d="M0 0H8.29V1.715H2.258V16.75H0Z" fill="#f0ede8" fill-rule="evenodd"/>
<path transform="matrix(1,0,0,-1,364.5923,349.62184)" d="M0 0V-14.907H2.258V0H6.808V1.843H-4.541V0Z" fill="#f0ede8" fill-rule="evenodd"/>
<path transform="matrix(1,0,0,-1,0,595.28)" d="M376.036 247.501H373.778V230.751H376.036Z" fill="#f0ede8" fill-rule="evenodd"/>
<path transform="matrix(1,0,0,-1,390.6235,361.0905)" d="M0 0-9.082 13.312H-11.339V-3.438H-9.082V9.814L0-3.438H2.258V13.312H0Z" fill="#f0ede8" fill-rule="evenodd"/>
<path transform="matrix(1,0,0,-1,409.6582,362.41773)" d="M0 0C1.603 1.413 2.516 3.205 2.749 5.351V7.194H-6.73V5.351H.379C.181 3.628-.457 2.249-1.551 1.241-2.654 .233-4.11-.267-5.92-.267-7.738-.267-9.246 .319-10.461 1.525-11.685 2.722-12.279 4.309-12.279 6.273-12.279 8.229-11.685 9.814-10.461 11.004-9.246 12.2-7.703 12.796-5.825 12.796-3.43 12.796-1.724 11.899-.698 10.099H2.033C1.379 11.563 .336 12.692-1.06 13.468-2.456 14.244-4.041 14.639-5.825 14.639-8.298 14.639-10.375 13.847-12.063 12.279-13.744 10.702-14.588 8.694-14.588 6.273-14.588 3.852-13.744 1.844-12.063 .267-10.375-1.327-8.35-2.111-5.972-2.111-3.593-2.111-1.611-1.413 0 0" fill="#f0ede8" fill-rule="evenodd"/>
<path transform="matrix(1,0,0,-1,438.5146,349.62184)" d="M0 0V-14.907H2.259V0H6.809V1.843H-4.531V0Z" fill="#f0ede8" fill-rule="evenodd"/>
<path transform="matrix(1,0,0,-1,447.7002,347.77903)" d="M0 0V-16.75H9.117V-14.905H2.259V-9.288H8.368V-7.444H2.259V-1.843H9.117V0Z" fill="#f0ede8" fill-rule="evenodd"/>
<path transform="matrix(1,0,0,-1,467.2871,364.52903)" d="M0 0C1.784 0 3.369 .396 4.765 1.207 6.161 2.008 7.202 3.171 7.858 4.679H5.127C4.636 3.766 3.938 3.051 3.041 2.568 2.153 2.085 1.138 1.845 0 1.845-1.878 1.845-3.422 2.431-4.636 3.637-5.859 4.833-6.454 6.42-6.454 8.385-6.454 10.34-5.859 11.926-4.636 13.115-3.422 14.312-1.878 14.907 0 14.907 2.395 14.907 4.101 13.977 5.127 12.115H7.858C7.202 13.605 6.161 14.761 4.765 15.563 3.369 16.355 1.784 16.75 0 16.75-2.474 16.75-4.55 15.958-6.23 14.391-7.919 12.813-8.764 10.806-8.764 8.385-8.764 5.963-7.919 3.955-6.23 2.378-4.55 .784-2.474 0 0 0" fill="#f0ede8" fill-rule="evenodd"/>
<path transform="matrix(1,0,0,-1,488.8721,355.22346)" d="M0 0H-8.66V7.444H-10.918V-9.306H-8.66V-1.844H0V-9.306H2.283V7.444H0Z" fill="#f0ede8" fill-rule="evenodd"/>
<path transform="matrix(1,0,0,-1,505.3467,361.0905)" d="M0 0-9.082 13.312H-11.34V-3.438H-9.082V9.814L0-3.438H2.267V13.312H0Z" fill="#f0ede8" fill-rule="evenodd"/>
<path transform="matrix(1,0,0,-1,518.5479,362.68434)" d="M0 0C-1.869 0-3.421 .586-4.645 1.792-5.868 2.988-6.48 4.575-6.48 6.54-6.48 8.495-5.877 10.081-4.653 11.271-3.43 12.467-1.888 13.063-.008 13.063 1.87 13.063 3.412 12.467 4.627 11.271 5.825 10.081 6.437 8.495 6.437 6.54 6.437 4.575 5.825 2.988 4.627 1.792 3.412 .586 1.87 0 0 0M6.222 .524C7.901 2.102 8.747 4.109 8.747 6.54 8.747 8.979 7.901 10.977 6.222 12.554 4.532 14.121 2.464 14.905 0 14.905-2.465 14.905-4.541 14.121-6.222 12.554-7.909 10.977-8.755 8.979-8.755 6.548-8.755 4.126-7.909 2.118-6.222 .533-4.541-1.061-2.465-1.845 0-1.845 2.464-1.845 4.532-1.061 6.222 .524" fill="#f0ede8" fill-rule="evenodd"/>
<path transform="matrix(1,0,0,-1,529.2236,364.52903)" d="M0 0H8.29V1.715H2.258V16.75H0Z" fill="#f0ede8" fill-rule="evenodd"/>
<path transform="matrix(1,0,0,-1,546.9395,362.68434)" d="M0 0C-1.878 0-3.429 .586-4.644 1.792-5.867 2.988-6.479 4.575-6.479 6.54-6.479 8.495-5.876 10.081-4.652 11.271-3.438 12.467-1.895 13.063-.017 13.063 1.87 13.063 3.413 12.467 4.619 11.271 5.826 10.081 6.437 8.495 6.437 6.54 6.437 4.575 5.826 2.988 4.619 1.792 3.413 .586 1.87 0 0 0M6.222 .524C7.894 2.102 8.738 4.109 8.738 6.54 8.738 8.979 7.894 10.977 6.222 12.554 4.533 14.121 2.456 14.905 0 14.905-2.464 14.905-4.54 14.121-6.229 12.554-7.91 10.977-8.755 8.979-8.755 6.548-8.755 4.126-7.91 2.118-6.229 .533-4.54-1.061-2.464-1.845 0-1.845 2.456-1.845 4.533-1.061 6.222 .524" fill="#f0ede8" fill-rule="evenodd"/>
<path transform="matrix(1,0,0,-1,571.3076,362.41773)" d="M0 0C1.604 1.413 2.525 3.205 2.758 5.351V7.194H-6.729V5.351H.38C.189 3.628-.457 2.249-1.551 1.241-2.653 .233-4.109-.267-5.919-.267-7.737-.267-9.245 .319-10.46 1.525-11.675 2.722-12.278 4.309-12.278 6.273-12.278 8.229-11.675 9.814-10.46 11.004-9.245 12.2-7.703 12.796-5.824 12.796-3.429 12.796-1.723 11.899-.697 10.099H2.034C1.38 11.563 .346 12.692-1.051 13.468-2.446 14.244-4.041 14.639-5.824 14.639-8.298 14.639-10.374 13.847-12.054 12.279-13.743 10.702-14.588 8.694-14.588 6.273-14.588 3.852-13.743 1.844-12.054 .267-10.374-1.327-8.341-2.111-5.971-2.111-3.593-2.111-1.611-1.413 0 0" fill="#f0ede8" fill-rule="evenodd"/>
<path transform="matrix(1,0,0,-1,582.5273,358.21266)" d="M0 0 5.583 10.434H3.076L-1.146 2.016-5.386 10.434H-7.868L-2.258 0V-6.316H0Z" fill="#f0ede8" fill-rule="evenodd"/>
<path transform="matrix(1,0,0,-1,617.8379,362.68434)" d="M0 0C-1.869 0-3.42 .586-4.644 1.792-5.867 2.988-6.479 4.575-6.479 6.54-6.479 8.495-5.876 10.081-4.652 11.271-3.429 12.467-1.896 13.063-.008 13.063 1.871 13.063 3.413 12.467 4.619 11.271 5.826 10.081 6.437 8.495 6.437 6.54 6.437 4.575 5.826 2.988 4.619 1.792 3.413 .586 1.871 0 0 0M6.222 .524C7.902 2.102 8.747 4.109 8.747 6.54 8.747 8.979 7.902 10.977 6.222 12.554 4.533 14.121 2.465 14.905 0 14.905-2.464 14.905-4.54 14.121-6.221 12.554-7.909 10.977-8.754 8.979-8.754 6.548-8.754 4.126-7.909 2.118-6.221 .533-4.54-1.061-2.464-1.845 0-1.845 2.465-1.845 4.533-1.061 6.222 .524" fill="#f0ede8" fill-rule="evenodd"/>
<path transform="matrix(1,0,0,-1,630.3154,362.99586)" d="M0 0C1.224-1.033 2.783-1.533 4.679-1.533 6.583-1.533 8.144-1.033 9.375 0 10.607 1.018 11.229 2.499 11.229 4.446V15.217H8.97V4.421C8.97 3.043 8.583 2.008 7.823 1.328 7.066 .646 6.022 .312 4.705 .312 3.378 .312 2.336 .646 1.576 1.328 .827 2.008 .457 3.043 .457 4.421V15.217H-1.835V4.446C-1.835 2.499-1.224 1.018 0 0" fill="#f0ede8" fill-rule="evenodd"/>
<path transform="matrix(1,0,0,-1,648.3418,349.62184)" d="M0 0V-14.907H2.258V0H6.807V1.843H-4.541V0Z" fill="#f0ede8" fill-rule="evenodd"/>
<path transform="matrix(1,0,0,-1,660.2754,350.32)" d="M0 0C.612 .465 1.396 .698 2.361 .698 3.335 .698 4.103 .465 4.672 .025 5.249-.431 5.566-.975 5.636-1.62H8.144C7.988-.318 7.428 .698 6.437 1.439 5.446 2.171 4.128 2.541 2.474 2.541 .803 2.541-.542 2.12-1.567 1.284-2.61 .439-3.119-.672-3.119-2.06-3.119-2.913-2.955-3.619-2.61-4.196-2.257-4.773-1.809-5.204-1.266-5.498-.724-5.782-.12-6.031 .552-6.213 1.225-6.401 1.888-6.558 2.568-6.694 3.241-6.833 3.852-6.988 4.396-7.178 4.938-7.376 5.378-7.66 5.73-8.039 6.075-8.427 6.257-8.97 6.257-9.693 6.257-10.409 5.92-11.038 5.282-11.572 4.645-12.107 3.774-12.364 2.689-12.364 1.587-12.364 .768-12.141 .216-11.685-.353-11.236-.662-10.633-.714-9.893H-3.119C-3.119-11.228-2.575-12.271-1.481-13.046-.396-13.821 1.026-14.209 2.774-14.209 4.516-14.209 5.895-13.744 6.92-12.795 7.945-11.856 8.463-10.737 8.463-9.461 8.463-8.625 8.29-7.928 7.937-7.358 7.592-6.79 7.144-6.368 6.602-6.084 6.059-5.808 5.446-5.575 4.782-5.385 4.103-5.214 3.431-5.05 2.767-4.903 2.095-4.765 1.482-4.601 .94-4.412 .396-4.214-.051-3.921-.396-3.523-.749-3.137-.921-2.646-.921-2.042-.921-1.154-.62-.465 0 0" fill="#f0ede8" fill-rule="evenodd"/>
<path transform="matrix(1,0,0,-1,678.958,362.68434)" d="M0 0C-1.87 0-3.422 .586-4.646 1.792-5.86 2.988-6.472 4.575-6.472 6.54-6.472 8.495-5.877 10.081-4.653 11.271-3.431 12.467-1.888 13.063-.009 13.063 1.869 13.063 3.411 12.467 4.626 11.271 5.824 10.081 6.437 8.495 6.437 6.54 6.437 4.575 5.824 2.988 4.626 1.792 3.411 .586 1.869 0 0 0M6.221 .524C7.901 2.102 8.745 4.109 8.745 6.54 8.745 8.979 7.901 10.977 6.221 12.554 4.54 14.121 2.464 14.905 0 14.905-2.465 14.905-4.532 14.121-6.223 12.554-7.911 10.977-8.755 8.979-8.755 6.548-8.755 4.126-7.911 2.118-6.223 .533-4.532-1.061-2.465-1.845 0-1.845 2.464-1.845 4.54-1.061 6.221 .524" fill="#f0ede8" fill-rule="evenodd"/>
<path transform="matrix(1,0,0,-1,691.4346,362.99586)" d="M0 0C1.223-1.033 2.782-1.533 4.687-1.533 6.583-1.533 8.143-1.033 9.374 0 10.606 1.018 11.228 2.499 11.228 4.446V15.217H8.97V4.421C8.97 3.043 8.582 2.008 7.823 1.328 7.074 .646 6.022 .312 4.704 .312 3.377 .312 2.343 .646 1.585 1.328 .827 2.008 .456 3.043 .456 4.421V15.217H-1.827V4.446C-1.827 2.499-1.216 1.018 0 0" fill="#f0ede8" fill-rule="evenodd"/>
<path transform="matrix(1,0,0,-1,710.1582,357.68824)" d="M0 0 4.515-6.841H7.351L2.611 .096C4.093 .32 5.205 .889 5.954 1.776 6.687 2.672 7.066 3.784 7.066 5.119 7.066 6.463 6.558 7.592 5.549 8.522 4.533 9.445 3.06 9.909 1.12 9.909H-4.464V-6.841H-2.206V0ZM1.12 8.066C3.56 8.066 4.791 7.032 4.791 4.955 4.791 3.965 4.481 3.198 3.877 2.663 3.274 2.121 2.361 1.845 1.12 1.845H-2.206V8.066Z" fill="#f0ede8" fill-rule="evenodd"/>
<path transform="matrix(1,0,0,-1,728.374,364.52903)" d="M0 0C1.784 0 3.378 .396 4.774 1.207 6.17 2.008 7.203 3.171 7.867 4.679H5.136C4.636 3.766 3.938 3.051 3.051 2.568 2.154 2.085 1.138 1.845 0 1.845-1.878 1.845-3.421 2.431-4.627 3.637-5.851 4.833-6.454 6.42-6.454 8.385-6.454 10.34-5.851 11.926-4.627 13.115-3.421 14.312-1.878 14.907 0 14.907 2.396 14.907 4.102 13.977 5.136 12.115H7.867C7.203 13.605 6.17 14.761 4.774 15.563 3.378 16.355 1.784 16.75 0 16.75-2.464 16.75-4.54 15.958-6.23 14.391-7.918 12.813-8.763 10.806-8.763 8.385-8.763 5.963-7.918 3.955-6.23 2.378-4.54 .784-2.464 0 0 0" fill="#f0ede8" fill-rule="evenodd"/>
<path transform="matrix(1,0,0,-1,0,595.28)" d="M741.3 247.501H739.042V230.751H741.3Z" fill="#f0ede8" fill-rule="evenodd"/>
<path transform="matrix(1,0,0,-1,755.8955,361.0905)" d="M0 0-9.081 13.312H-11.34V-3.438H-9.081V9.814L0-3.438H2.259V13.312H0Z" fill="#f0ede8" fill-rule="evenodd"/>
<path transform="matrix(1,0,0,-1,774.9297,362.41773)" d="M0 0C1.595 1.413 2.518 3.205 2.749 5.351V7.194H-6.729V5.351H.38C.182 3.628-.456 2.249-1.55 1.241-2.662 .233-4.109-.267-5.927-.267-7.737-.267-9.254 .319-10.459 1.525-11.684 2.722-12.287 4.309-12.287 6.273-12.287 8.229-11.684 9.814-10.459 11.004-9.254 12.2-7.711 12.796-5.833 12.796-3.438 12.796-1.731 11.899-.697 10.099H2.035C1.371 11.563 .337 12.692-1.06 13.468-2.455 14.244-4.041 14.639-5.833 14.639-8.297 14.639-10.373 13.847-12.063 12.279-13.751 10.702-14.588 8.694-14.588 6.273-14.588 3.852-13.751 1.844-12.063 .267-10.373-1.327-8.349-2.111-5.971-2.111-3.602-2.111-1.61-1.413 0 0" fill="#f0ede8" fill-rule="evenodd"/>
<path transform="matrix(1,0,0,-1,421.3574,357.08375)" d="M0 0C0 1.37 1.11 2.48 2.481 2.48 3.851 2.48 4.963 1.37 4.963 0 4.963-1.371 3.851-2.482 2.481-2.482 1.11-2.482 0-1.371 0 0" fill="#c9c2b9" fill-rule="evenodd"/>
<path transform="matrix(1,0,0,-1,595.6914,357.08375)" d="M0 0C0 1.37 1.111 2.48 2.48 2.48 3.851 2.48 4.963 1.37 4.963 0 4.963-1.371 3.851-2.482 2.48-2.482 1.111-2.482 0-1.371 0 0" fill="#c9c2b9" fill-rule="evenodd"/>
</g>
</g>
</svg>
